<?xml version="1.0" encoding="UTF-8"?>
<svg version="1.1" xmlns="http://www.w3.org/2000/svg" width="260" height="260">
<path d="M0 0 C27.09441174 20.48488203 45.90651465 49.32422024 51.54321289 83.0769043 C55.55641472 117.86306362 48.3063954 152.31894338 26.38696289 180.08862305 C5.23408863 205.35358819 -24.11810827 224.74714712 -57.49975586 228.7097168 C-93.67118787 231.78087612 -127.60004253 222.84969976 -155.69604492 199.49780273 C-180.27250003 178.41816969 -196.95604659 148.43911753 -199.98413086 115.9206543 C-202.08813547 79.28482268 -192.53068742 45.73822763 -167.93237305 18.02514648 C-125.0475709 -28.66529534 -51.72512034 -37.78708285 0 0 Z " fill="#06032A" transform="translate(203.984130859375,27.079345703125)"/>
<path d="M0 0 C3.63 0 7.26 0 11 0 C11 13.53 11 27.06 11 41 C13.64 41 16.28 41 19 41 C31.39890953 42.85009907 44.15757524 48.24324883 51.8359375 58.4375 C59.15233921 69.30405444 61.65671663 78.8905745 61.4375 91.9375 C61.44458984 93.12279297 61.45167969 94.30808594 61.45898438 95.52929688 C61.36041583 109.35163983 58.37779046 122.56554341 48.625 132.875 C37.43017347 143.11655527 26.27044929 144.98197005 11 146 C11 160.52 11 175.04 11 190 C7.37 190 3.74 190 0 190 C0 175.48 0 160.96 0 146 C-3.3 146 -6.6 146 -10 146 C-22.72437291 143.56402771 -33.99590976 137.26911004 -42 127 C-50.97585175 111.4892669 -52.75865639 92.25575639 -49.3125 74.73046875 C-47.41128162 68.05243921 -44.35934571 62.38819373 -40 57 C-39.52175781 56.38640625 -39.04351562 55.7728125 -38.55078125 55.140625 C-30.76059686 46.27119592 -18.52364836 41.78316057 -7 41 C-4.69 41 -2.38 41 0 41 C0 27.47 0 13.94 0 0 Z " fill="#6959F7" transform="translate(87,39)"/>
<path d="M0 0 C0 28.05 0 56.1 0 85 C-8.89605532 85 -15.90922017 82.95042586 -22.47265625 76.7421875 C-32.96039035 64.77919669 -32.81171961 48.4969474 -32.16845703 33.47851562 C-31.49032612 23.50114603 -28.21791057 13.67472268 -20.8125 6.6875 C-14.2847489 1.58191689 -8.22628515 0 0 0 Z " fill="#08043B" transform="translate(87,90)"/>
<path d="M0 0 C9.90767284 1.10085254 16.91053671 2.74941254 24 10 C30.8121571 19.60688822 32.53600722 30.394948 32.375 41.9375 C32.36484863 42.99146973 32.35469727 44.04543945 32.34423828 45.13134766 C32.1007845 57.3210217 30.20749919 68.9417244 21.11328125 77.84765625 C14.29205233 83.30195914 8.72537051 85 0 85 C0 56.95 0 28.9 0 0 Z " fill="#0B054C" transform="translate(98,90)"/>
<path d="M0 0 C27.09441174 20.48488203 45.90651465 49.32422024 51.54321289 83.0769043 C55.55641472 117.86306362 48.3063954 152.31894338 26.38696289 180.08862305 C5.23408863 205.35358819 -24.11810827 224.74714712 -57.49975586 228.7097168 C-93.67118787 231.78087612 -127.60004253 222.84969976 -155.69604492 199.49780273 C-180.27250003 178.41816969 -196.95604659 148.43911753 -199.98413086 115.9206543 C-202.08813547 79.28482268 -192.53068742 45.73822763 -167.93237305 18.02514648 C-125.0475709 -28.66529534 -51.72512034 -37.78708285 0 0 Z M-167.73803711 20.89331055 C-173.66209739 27.75798498 -178.54530997 35.02325212 -182.98413086 42.9206543 C-183.91225586 44.57194336 -183.91225586 44.57194336 -184.85913086 46.2565918 C-189.25543735 54.53756565 -192.15961286 62.82244945 -194.46411133 71.88598633 C-194.9344643 73.72632515 -195.44340309 75.55669632 -195.95678711 77.38549805 C-200.23332946 94.75024907 -199.60218306 114.68241895 -194.98413086 131.9206543 C-194.65541992 133.19166992 -194.32670898 134.46268555 -193.98803711 135.7722168 C-184.94716255 168.49678023 -163.46204573 195.26601761 -134.06860352 212.01196289 C-124.74211808 217.18812709 -115.33009453 220.83266198 -104.98657227 223.41674805 C-103.15869147 223.87672683 -101.34205347 224.38080706 -99.52709961 224.8894043 C-70.19209369 232.13096004 -35.99275438 225.48117294 -10.29663086 210.0456543 C17.69241291 192.21929904 36.39329151 167.5426757 46.01586914 135.9206543 C46.35102539 134.88553711 46.68618164 133.85041992 47.03149414 132.78393555 C52.27960752 112.18717311 52.05316909 89.30460292 46.01586914 68.9206543 C45.65364258 67.69733398 45.29141602 66.47401367 44.91821289 65.21362305 C38.21040785 44.953778 26.90944285 28.02976453 12.01586914 12.9206543 C11.23856445 12.13045898 10.46125977 11.34026367 9.66040039 10.52612305 C-4.40920355 -2.93073432 -22.55622531 -11.47173607 -40.98413086 -17.0793457 C-42.01924805 -17.41450195 -43.05436523 -17.7496582 -44.12084961 -18.0949707 C-89.56816923 -29.67507641 -136.62507723 -13.28696542 -167.73803711 20.89331055 Z " fill="#6557E2" transform="translate(203.984130859375,27.079345703125)"/>
<path d="M0 0 C2.70120687 1.07329323 3.26200621 2.20902785 4.6171875 4.75390625 C5.01035156 5.46417969 5.40351563 6.17445312 5.80859375 6.90625 C9.23107767 14.89919835 10.61284339 22.25703811 10.5546875 30.94140625 C10.54896729 31.94405518 10.54324707 32.9467041 10.53735352 33.97973633 C10.13452365 50.93249907 3.44387736 66.96835342 -8.9453125 78.81640625 C-11.89287619 81.24624798 -13.99246428 82.81640625 -17.9453125 82.81640625 C-16.33469099 79.18174166 -14.08075586 76.30996267 -11.6328125 73.19140625 C-7.67503926 68.00800511 -4.400405 62.87230108 -1.9453125 56.81640625 C-1.46771484 55.64658203 -1.46771484 55.64658203 -0.98046875 54.453125 C2.88985845 42.98482828 3.16978055 26.92042075 -1.9453125 15.81640625 C-2.68580617 14.37398628 -3.43559333 12.93629343 -4.1953125 11.50390625 C-5.54843466 8.93245572 -5.94920423 7.99153391 -5.8828125 5.00390625 C-3.59295518 -0.33909416 -3.59295518 -0.33909416 0 0 Z " fill="#6657F2" transform="translate(221.9453125,105.18359375)"/>
<path d="M0 0 C-1.3786811 3.19638355 -3.29344865 5.7212903 -5.47851562 8.4152832 C-17.31607598 23.03241711 -20.91311251 38.40009565 -19 57 C-17.82841718 62.44290202 -15.42156052 67.27858792 -12.859375 72.18359375 C-11.68237257 74.67134889 -11.59202204 76.28014696 -12 79 C-13.75 81.375 -13.75 81.375 -16 83 C-17.98046875 82.91015625 -17.98046875 82.91015625 -20 82 C-21.37890625 79.84765625 -21.37890625 79.84765625 -22.5625 77.0625 C-22.95566406 76.16660156 -23.34882813 75.27070313 -23.75390625 74.34765625 C-26.86050467 66.0017163 -28.55945067 58.69996003 -28.5 49.75 C-28.49427979 48.74219482 -28.48855957 47.73438965 -28.48266602 46.69604492 C-28.28152391 38.2528171 -26.83334119 31.60860145 -23 24 C-22.46890625 22.94554688 -21.9378125 21.89109375 -21.390625 20.8046875 C-17.08243345 12.91951122 -9.99758967 0 0 0 Z " fill="#6656F1" transform="translate(182,105)"/>
<path d="M0 0 C0.97904297 0.01804688 1.95808594 0.03609375 2.96679688 0.0546875 C5.37470771 0.10167113 7.78059335 0.16734306 10.1875 0.25 C8.70125131 9.67379666 1.32929651 16.60969504 -4.76098633 23.55249023 C-7.58781339 26.68916805 -7.58781339 26.68916805 -9.8125 30.25 C-7.70861431 30.30402274 -5.60433286 30.34280256 -3.5 30.375 C-2.32824219 30.39820313 -1.15648437 30.42140625 0.05078125 30.4453125 C3.35143661 30.50320618 3.35143661 30.50320618 6.1875 28.25 C6.9375 30.5 6.9375 30.5 7.1875 33.25 C5.34304062 35.53967371 3.81387553 36.93681224 1.1875 38.25 C-0.5529417 38.33449628 -2.29659722 38.35723024 -4.0390625 38.34765625 C-5.0703125 38.34443359 -6.1015625 38.34121094 -7.1640625 38.33789062 C-8.78441406 38.32532227 -8.78441406 38.32532227 -10.4375 38.3125 C-12.06945312 38.30573242 -12.06945312 38.30573242 -13.734375 38.29882812 C-16.42713789 38.28701776 -19.11979188 38.27054778 -21.8125 38.25 C-21.35934891 33.34322336 -20.24003888 31.06739653 -16.8125 27.5625 C-11.06572772 21.49390847 -5.45654192 15.21606288 -0.8125 8.25 C-2.53972728 8.02615618 -4.26946007 7.82160031 -6 7.625 C-6.96292969 7.50898438 -7.92585937 7.39296875 -8.91796875 7.2734375 C-12.05325323 7.24805058 -14.00736535 7.90640717 -16.8125 9.25 C-16.54798215 6.07578584 -16.04736108 4.52009024 -13.9375 2.09375 C-9.34130923 -0.61800255 -5.22837329 -0.18258926 0 0 Z " fill="#6555EF" transform="translate(196.8125,139.75)"/>
<path d="M0 0 C0.33 0 0.66 0 1 0 C1.08636719 0.6084375 1.17273438 1.216875 1.26171875 1.84375 C3.81422302 17.76762983 9.82395857 31.67642581 17 46 C17.33 46.66 17.66 47.32 18 48 C17.01 48 16.02 48 15 48 C10.07335004 39.66948279 6.13901419 31.3153617 3.0625 22.125 C2.76851318 21.2585083 2.47452637 20.3920166 2.17163086 19.49926758 C-2.0932963 6.2798889 -2.0932963 6.2798889 0 0 Z " fill="#5D50D9" transform="translate(7,148)"/>
<path d="M0 0 C4.26838806 -0.02491426 8.53673639 -0.04296047 12.80517578 -0.05493164 C14.25407652 -0.05992785 15.70297231 -0.06672709 17.15185547 -0.07543945 C31.97156783 -0.16225376 31.97156783 -0.16225376 39 1 C39 1.66 39 2.32 39 3 C37.52094768 3.02779013 36.04172942 3.04673956 34.5625 3.0625 C33.32693359 3.07990234 33.32693359 3.07990234 32.06640625 3.09765625 C29.60116508 3.01914538 27.25628759 2.82131943 24.8125 2.53125 C19.69548965 1.92946865 14.58279026 1.66777345 9.4375 1.4375 C8.06754883 1.37272461 8.06754883 1.37272461 6.66992188 1.30664062 C4.44672009 1.20188243 2.22343293 1.09970983 0 1 C0 0.67 0 0.34 0 0 Z " fill="#7264E5" transform="translate(114,4)"/>
<path d="M0 0 C0 0.99 0 1.98 0 3 C-1.68765239 2.5422281 -3.37511352 2.0837511 -5.0625 1.625 C-6.07054687 1.35171875 -7.07859375 1.0784375 -8.1171875 0.796875 C-10.31658239 0.18891219 -12.50493764 -0.45913352 -14.6875 -1.125 C-18.47618149 -2.12578379 -22.10561585 -2.59006483 -26 -3 C-26 -3.33 -26 -3.66 -26 -4 C-17.05948566 -6.59563319 -8.37419088 -3.04644846 0 0 Z " fill="#6659D7" transform="translate(174,11)"/>
<path d="M0 0 C4.30851104 1.54304814 6.49661902 4.83409506 9.125 8.375 C9.56714844 8.9525 10.00929687 9.53 10.46484375 10.125 C12.61221397 12.96653522 14.56665183 15.73067778 16 19 C12.91690859 18.69719638 12.05956723 18.06933998 10 15.671875 C9.34 14.70765625 8.68 13.7434375 8 12.75 C5.98501945 9.83772343 4.00110449 7.00134226 1.75 4.265625 C0 2 0 2 0 0 Z " fill="#685BE2" transform="translate(222,45)"/>
<path d="M0 0 C0.66 0 1.32 0 2 0 C0.501529 3.54184054 -1.54915885 5.72776562 -4.3125 8.375 C-7.01784279 11.00640255 -9.59158999 13.6055296 -11.9375 16.5625 C-12.618125 17.366875 -13.29875 18.17125 -14 19 C-14.66 19 -15.32 19 -16 19 C-14.29906612 14.68388029 -11.13515241 11.68761387 -8 8.375 C-7.18015625 7.49714844 -7.18015625 7.49714844 -6.34375 6.6015625 C-4.25718606 4.37180299 -2.15944305 2.15944305 0 0 Z " fill="#6952E5" transform="translate(46,35)"/>
<path d="M0 0 C1.15693359 0.00322266 2.31386719 0.00644531 3.50585938 0.00976562 C4.70404297 0.01814453 5.90222656 0.02652344 7.13671875 0.03515625 C8.96299805 0.04192383 8.96299805 0.04192383 10.82617188 0.04882812 C13.82557101 0.06059047 16.82486964 0.07702799 19.82421875 0.09765625 C19.82421875 0.42765625 19.82421875 0.75765625 19.82421875 1.09765625 C18.67566406 1.15824219 17.52710938 1.21882812 16.34375 1.28125 C7.15934451 1.77387352 -2.00910055 2.33646545 -11.17578125 3.09765625 C-11.17578125 2.43765625 -11.17578125 1.77765625 -11.17578125 1.09765625 C-7.38503588 0.21202536 -3.88882227 -0.01915676 0 0 Z " fill="#695BE8" transform="translate(114.17578125,4.90234375)"/>
<path d="M0 0 C8.91 1.98 8.91 1.98 18 4 C17.34 4.66 16.68 5.32 16 6 C10.1245784 5.69609888 5.42222927 4.22698702 0 2 C0 1.34 0 0.68 0 0 Z " fill="#5F52D9" transform="translate(92,248)"/>
<path d="M0 0 C1.19156292 4.76625167 0.3415946 5.87879351 -2 10 C-2.66 9.67 -3.32 9.34 -4 9 C-2.68 6.03 -1.36 3.06 0 0 Z " fill="#7B56EC" transform="translate(13,83)"/>
<path d="M0 0 C3.42298577 1.14099526 4.14758766 2.00085621 6 5 C6 5.99 6 6.98 6 8 C5.34 8 4.68 8 4 8 C0 2.58823529 0 2.58823529 0 0 Z " fill="#6759E5" transform="translate(23,196)"/>
<path d="M0 0 C2 2 2 2 2.125 5.125 C2.08375 6.07375 2.0425 7.0225 2 8 C1.01 8.33 0.02 8.66 -1 9 C-0.67 6.03 -0.34 3.06 0 0 Z " fill="#5B4FD0" transform="translate(253,143)"/>
<path d="M0 0 C2.66735273 2.48952921 4.55746343 4.63408134 6 8 C4.125 7.6875 4.125 7.6875 2 7 C0 4 0 4 0 0 Z " fill="#7B70E7" transform="translate(232,56)"/>
<path d="M0 0 C-3.45214853 2.30143236 -4.23479324 2.13833854 -8.1875 1.625 C-9.53908203 1.45871094 -9.53908203 1.45871094 -10.91796875 1.2890625 C-11.60503906 1.19367187 -12.29210937 1.09828125 -13 1 C-13 0.67 -13 0.34 -13 0 C-8.38926889 -1.29676812 -4.66159911 -0.71109139 0 0 Z " fill="#6155CE" transform="translate(161,7)"/>
<path d="M0 0 C0.99 0 1.98 0 3 0 C3.625 3.375 3.625 3.375 4 7 C3.34 7.66 2.68 8.32 2 9 C1.34 6.03 0.68 3.06 0 0 Z " fill="#6052D3" transform="translate(248,92)"/>
<path d="M0 0 C-0.33 0.66 -0.66 1.32 -1 2 C-3.9375 2.75 -3.9375 2.75 -7 3 C-7.66 2.34 -8.32 1.68 -9 1 C-2.25 -1.125 -2.25 -1.125 0 0 Z " fill="#584BCD" transform="translate(168,249)"/>
<path d="M0 0 C-2.61673759 1.40182371 -5.0371669 2.60495559 -8 3 C-8.66 2.34 -9.32 1.68 -10 1 C-6.21812119 -0.83691257 -4.05431692 -1.15837626 0 0 Z " fill="#5F53D8" transform="translate(94,11)"/>
<path d="" fill="#FFFFFF" transform="translate(0,0)"/>
<path d="" fill="#FFFFFF" transform="translate(0,0)"/>
<path d="" fill="#FFFFFF" transform="translate(0,0)"/>
<path d="" fill="#FFFFFF" transform="translate(0,0)"/>
<path d="" fill="#FFFFFF" transform="translate(0,0)"/>
<path d="" fill="#FFFFFF" transform="translate(0,0)"/>
<path d="" fill="#FFFFFF" transform="translate(0,0)"/>
<path d="" fill="#FFFFFF" transform="translate(0,0)"/>
</svg>
