<svg width="190.84375000000003" height="20" xmlns="http://www.w3.org/2000/svg" stroke="null">
 <mask height="20" width="190.84375" id="a" stroke="null">
  <rect id="svg_1" fill="#fff" rx="3" height="20" width="190.84375" stroke="null"/>
 </mask>

 <g stroke="null">
  <title stroke="null">Layer 1</title>
  <g id="svg_2" mask="url(#a)" transform="rotate(0.07076 106.764 6.40884) matrix(1.1239 0 0 1.01308 -23.5851 -0.232714)" stroke="null">
   <path id="svg_3" d="m34.23824,20.12916l26.87673,0l0,-27.14672l-26.87673,0l0,27.14672z" fill="#6D59FF" stroke="null"/>
   <path id="svg_4" d="m61.11498,20.12916l136.60539,0l0,-27.14672l-136.60539,0l0,27.14672z" fill="#6D59FF" stroke="null"/>
   <path id="svg_5" d="m34.23824,20.12916l163.48213,0l0,-27.14672l-163.48213,0l0,27.14672z" fill="#6D59FF" stroke="null"/>
  </g>
  <rect fill="#864FFE" x="74.3566" y="87.55595" width="38.66687" height="41.33355" id="svg_11" stroke="null"/>
  <rect fill="#707070" x="-3.45679" y="-0.173" width="46.24733" height="22.32123" id="svg_12" stroke-opacity="0" stroke="null"/>
  <g id="svg_6" font-size="11" font-family="DejaVu Sans,         Verdana,Geneva,sans-serif" text-anchor="middle" fill="#fff" stroke="null">
   <text id="svg_7" fill-opacity="0.3" fill="#010101" y="56.92577" x="22.06378" stroke="null">DOI</text>
   <text id="svg_8" y="55.92577" x="22.06378" stroke="null">DOI</text>
   <text id="svg_9" fill-opacity="0.3" fill="#010101" y="56.92577" x="116.48566" stroke="null">10.5281/zenodo.16639073</text>
   <text id="svg_10" y="55.92577" x="116.48566" stroke="null">10.5281/zenodo.16639073</text>
  </g>
  <text fill="#000000" stroke-width="0" x="145.91117" y="-106.22218" id="svg_14" font-size="24" font-family="Encode Sans" text-anchor="start" xml:space="preserve" stroke="null">text</text>
  <text fill="#000000" stroke-width="0" x="12.37293" y="21.74791" id="svg_17" font-size="24" font-family="Varta" text-anchor="start" xml:space="preserve" transform="matrix(0.626752 0 0 0.513514 -6.24301 3.40952)" fill-opacity="0.58" stroke="null">ORCID</text>
  <text fill="#FFFFFF" stroke-width="0" x="12.6881" y="20.20925" id="svg_16" font-size="24" font-family="Varta" text-anchor="start" xml:space="preserve" transform="matrix(0.619719 0 0 0.513514 -6.15151 3.40952)" stroke="null">ORCID</text>
  <text fill="#FFFFFF" stroke-width="0" x="20.25041" y="-108.68121" id="svg_15" font-size="24" font-family="Glory" text-anchor="start" xml:space="preserve" transform="translate(187.243 257.812) scale(0.950308 1) translate(-187.243 -0.382546) translate(40.3328 18.125) scale(1 0.82439) translate(-40.3328 -18.125) translate(40.3328 -1.72241) scale(1 0.534227) translate(-40.3328 1.72241) translate(40.3328 33.323) scale(1 0.448609) translate(-40.3328 -33.323) translate(40.3328 -47.6935) scale(1 4.71438) translate(-40.3328 47.6935) translate(47.439 17.932) scale(1 1.16681) translate(-47.439 -17.932) translate(196.178 22.1602) scale(0.909404 0.711012) translate(-196.178 -22.1602) translate(34.4138 21.7034) scale(0.936587 0.917535) translate(-34.4138 -21.7034) matrix(0.760285 0 0 0.754025 10.3265 -0.443175)" stroke="null">0009-0001-3390-5012</text>
  <text fill="#000000" stroke-width="0" x="-76.34314" y="-73.46108" id="svg_19" font-size="24" font-family="Glory" text-anchor="start" xml:space="preserve" transform="matrix(0.543826 0 0 0.500901 99.6318 51.4831)" fill-opacity="0.46" stroke="null">0009-0001-3390-5012</text>
  <text fill="#FFFFFF" stroke-width="0" x="-75.29897" y="30.54538" id="svg_18" font-size="24" font-family="Glory" text-anchor="start" xml:space="preserve" transform="translate(0 1.48148) translate(0 -2.37037) translate(-0.444444 3.55555) translate(0 -6.66666) matrix(0.543826 0 0 0.481644 99.6318 3.02688)" stroke="null">0009-0001-3390-5012</text>
 </g>
</svg>